<svg xmlns="http://www.w3.org/2000/svg" xmlns:xlink="http://www.w3.org/1999/xlink" width="500" zoomAndPan="magnify" viewBox="0 0 375 374.999991" height="500" preserveAspectRatio="xMidYMid meet" version="1.2"><g id="2b631416a0"><path style=" stroke:none;fill-rule:nonzero;fill:#ffffff;fill-opacity:1;" d="M 187.5 0 C 83.90625 0 0 83.90625 0 187.5 C 0 270.46875 53.671875 340.546875 128.203125 365.390625 C 137.578125 367.03125 141.09375 361.40625 141.09375 356.484375 C 141.09375 352.03125 140.859375 337.265625 140.859375 321.5625 C 93.75 330.234375 81.5625 310.078125 77.8125 299.53125 C 75.703125 294.140625 66.5625 277.5 58.59375 273.046875 C 52.03125 269.53125 42.65625 260.859375 58.359375 260.625 C 73.125 260.390625 83.671875 274.21875 87.1875 279.84375 C 104.0625 308.203125 131.015625 300.234375 141.796875 295.3125 C 143.4375 283.125 148.359375 274.921875 153.75 270.234375 C 112.03125 265.546875 68.4375 249.375 68.4375 177.65625 C 68.4375 157.265625 75.703125 140.390625 87.65625 127.265625 C 85.78125 122.578125 79.21875 103.359375 89.53125 77.578125 C 89.53125 77.578125 105.234375 72.65625 141.09375 96.796875 C 156.09375 92.578125 172.03125 90.46875 187.96875 90.46875 C 203.90625 90.46875 219.84375 92.578125 234.84375 96.796875 C 270.703125 72.421875 286.40625 77.578125 286.40625 77.578125 C 296.71875 103.359375 290.15625 122.578125 288.28125 127.265625 C 300.234375 140.390625 307.5 157.03125 307.5 177.65625 C 307.5 249.609375 263.671875 265.546875 221.953125 270.234375 C 228.75 276.09375 234.609375 287.34375 234.609375 304.921875 C 234.609375 330 234.375 350.15625 234.375 356.484375 C 234.375 361.40625 237.890625 367.265625 247.265625 365.390625 C 249.574219 364.613281 251.867188 363.789062 254.140625 362.921875 C 256.417969 362.054688 258.675781 361.140625 260.917969 360.1875 C 263.15625 359.230469 265.378906 358.230469 267.582031 357.191406 C 269.78125 356.148438 271.964844 355.0625 274.121094 353.9375 C 276.28125 352.808594 278.417969 351.640625 280.535156 350.429688 C 282.648438 349.21875 284.738281 347.96875 286.800781 346.675781 C 288.867188 345.386719 290.90625 344.054688 292.921875 342.683594 C 294.933594 341.3125 296.921875 339.902344 298.878906 338.457031 C 300.835938 337.007812 302.765625 335.519531 304.667969 333.996094 C 306.570312 332.472656 308.441406 330.914062 310.28125 329.320312 C 312.121094 327.722656 313.929688 326.089844 315.703125 324.425781 C 317.480469 322.757812 319.226562 321.058594 320.933594 319.324219 C 322.644531 317.589844 324.320312 315.820312 325.964844 314.023438 C 327.605469 312.222656 329.210938 310.390625 330.78125 308.527344 C 332.351562 306.667969 333.886719 304.773438 335.382812 302.851562 C 336.878906 300.929688 338.335938 298.980469 339.757812 297 C 341.179688 295.023438 342.5625 293.015625 343.902344 290.984375 C 345.246094 288.953125 346.550781 286.894531 347.8125 284.8125 C 349.074219 282.726562 350.296875 280.621094 351.476562 278.492188 C 352.65625 276.359375 353.796875 274.207031 354.894531 272.03125 C 355.988281 269.855469 357.042969 267.660156 358.054688 265.445312 C 359.066406 263.230469 360.035156 260.992188 360.957031 258.738281 C 361.882812 256.484375 362.761719 254.214844 363.597656 251.925781 C 364.433594 249.640625 365.226562 247.335938 365.972656 245.015625 C 366.71875 242.699219 367.417969 240.367188 368.074219 238.019531 C 368.730469 235.671875 369.339844 233.316406 369.902344 230.945312 C 370.46875 228.574219 370.984375 226.195312 371.457031 223.804688 C 371.925781 221.414062 372.351562 219.015625 372.730469 216.609375 C 373.105469 214.203125 373.4375 211.789062 373.722656 209.371094 C 374.003906 206.953125 374.242188 204.527344 374.429688 202.097656 C 374.621094 199.671875 374.761719 197.238281 374.859375 194.804688 C 374.953125 192.371094 375 189.9375 375 187.5 C 375 83.90625 291.09375 0 187.5 0 "/></g></svg>