 <svg  version="1.0" xmlns="http://www.w3.org/2000/svg"  width="300.000000pt" height="225.000000pt" viewBox="0 0 300.000000 225.000000"  preserveAspectRatio="xMidYMid meet">  <g transform="translate(0.000000,225.000000) scale(0.100000,-0.100000)" fill="#ffffff" stroke="none"> <path d="M655 1302 c-36 -2 -48 -11 -117 -85 l-77 -82 -1 83 0 82 -30 0 -30 0 0 -175 0 -175 30 0 c30 0 30 0 30 58 0 51 4 62 28 84 l27 26 60 -84 c57 -80 61 -84 98 -84 45 0 48 -8 -45 117 l-67 92 72 70 c39 38 69 71 67 73 -3 2 -23 2 -45 0z"/> <path d="M1275 1290 c-8 -27 12 -52 39 -48 16 2 21 10 21 33 0 25 -4 31 -27 33 -19 2 -28 -2 -33 -18z"/> <path d="M2139 1223 c0 -62 -2 -74 -11 -56 -24 49 -105 53 -149 7 -19 -20 -24 -39 -27 -93 -4 -61 -2 -70 22 -98 14 -17 38 -34 52 -37 32 -8 90 10 98 29 8 22 26 18 26 -5 0 -16 7 -20 30 -20 l30 0 0 175 0 175 -35 0 -35 0 -1 -77z m-15 -95 c37 -52 9 -128 -46 -128 -43 0 -68 25 -68 69 0 52 23 81 65 81 24 0 39 -7 49 -22z"/> <path d="M773 1198 c-60 -29 -72 -173 -20 -226 36 -36 95 -37 131 -3 26 24 26 24 26 3 0 -18 6 -22 30 -22 l30 0 0 130 0 130 -35 0 c-34 0 -35 -1 -29 -27 l7 -28 -32 28 c-34 28 -70 33 -108 15z m115 -60 c7 -7 12 -35 12 -63 0 -59 -12 -75 -56 -75 -39 0 -64 29 -64 75 0 46 25 75 64 75 17 0 37 -5 44 -12z"/> <path d="M980 1203 c0 -5 18 -63 41 -130 l42 -123 48 0 c33 0 49 4 49 13 0 6 18 61 40 121 22 61 40 114 40 119 0 4 -14 7 -32 5 -31 -3 -33 -6 -59 -88 -15 -47 -30 -94 -33 -105 -4 -14 -17 13 -42 88 -35 103 -38 107 -65 107 -16 0 -29 -3 -29 -7z"/> <path d="M1275 1080 l0 -130 33 0 32 0 0 130 0 130 -32 0 -33 0 0 -130z"/> <path d="M1445 1192 c-39 -24 -54 -43 -65 -83 -12 -40 3 -102 30 -129 28 -28 88 -42 132 -30 37 11 88 60 88 86 0 24 -50 17 -72 -11 -24 -31 -77 -34 -101 -7 -23 26 -22 94 1 115 27 24 88 22 102 -3 7 -13 21 -20 40 -20 17 0 30 2 30 5 0 22 -35 65 -64 79 -44 21 -84 20 -121 -2z"/> <path d="M1723 1196 c-46 -21 -67 -59 -67 -122 0 -67 25 -104 81 -122 52 -17 109 -3 144 34 20 22 24 36 24 90 0 57 -3 67 -30 94 -37 36 -103 48 -152 26z m107 -56 c24 -24 27 -86 4 -118 -10 -15 -25 -22 -47 -22 -41 0 -53 9 -67 44 -30 81 53 153 110 96z"/> <path d="M2310 1197 c-35 -18 -70 -74 -70 -114 0 -82 49 -135 124 -137 52 -1 87 16 109 54 23 38 22 40 -16 40 -21 0 -36 -7 -45 -20 -18 -29 -76 -27 -96 2 -31 43 -23 48 79 48 93 0 95 0 95 24 0 30 -39 87 -70 103 -14 7 -38 13 -55 13 -16 0 -41 -6 -55 -13z m92 -54 c34 -40 32 -43 -36 -43 -70 0 -79 7 -46 40 25 25 62 26 82 3z"/> <path d="M2535 1014 c-19 -20 -16 -43 8 -58 34 -22 73 27 47 59 -16 19 -35 19 -55 -1z"/> </g> </svg> 